<svg id="Capa_1" enable-background="new 0 0 511.967 511.967" height="512" viewBox="0 0 511.967 511.967" width="512" xmlns="http://www.w3.org/2000/svg"><g><path d="m443.862 271.62c-14.927-3.702-29.866-3.38-44.123.15 13.268 20.889 21.227 45.48 21.227 72.008h-30c0-40.161-22.755-74.861-56.01-92.382-21.605-11.382-48.384-10.851-69.662 1.128-.108.06-.216.121-.324.183 22.143 24.056 35.997 55.873 35.997 91.071h-30c0-40.212-22.8-74.989-56.118-92.51-24.778-13.032-55.137-9.472-77.999 6.685l-.403.284c26.841 19.041 44.52 50.206 44.52 85.541h-30c0-41.499-34.25-74.632-73.544-73.995-44.965 6.608-78.1 46.496-77.412 96.451 1.23 45.513 42.001 82.544 89.652 82.544h331.523c49.116 0 90.399-38.027 90.78-86.045.001-43.11-29.212-81.416-68.104-91.113z"/><path d="m443.862 91.62c-14.927-3.702-29.866-3.38-44.123.15 13.268 20.889 21.227 45.48 21.227 72.008h-30c0-40.161-22.755-74.861-56.01-92.382-21.605-11.382-48.384-10.851-69.662 1.128-.108.06-.216.121-.324.183 22.143 24.056 35.997 55.873 35.997 91.071h-30c0-40.212-22.8-74.989-56.118-92.51-24.778-13.032-55.137-9.472-77.999 6.685l-.403.284c26.841 19.041 44.52 50.206 44.52 85.541h-30c0-41.499-34.25-74.632-73.544-73.995-44.965 6.608-78.1 46.496-77.412 96.451.727 26.884 15.097 50.574 36.398 65.656 27.415-14.002 45.839-14.623 68.723-8.293 7.604-4.184 33.55-30.264 77.051-30.264 22.698 0 41.351 7.024 58.74 18.574 4.504-1.983 25.97-18.721 60.381-18.721 29.8 0 55.95 12.686 77.402 32.886 9.401-1.979 22.941-7.09 43.564-7.09 20.834 0 37.429 4.589 53.121 12.621 21.859-15.597 36.348-40.358 36.575-68.871.001-43.109-29.212-81.415-68.104-91.112z"/></g></svg>