<svg id="Capa_1" enable-background="new 0 0 512 512" height="512" viewBox="0 0 512 512" width="512" xmlns="http://www.w3.org/2000/svg"><g><path d="m489.015 241.356c0 9.935-3.117 19.475-8.861 27.435h-76.286c-5.743-7.959-8.861-17.5-8.861-27.435 0-25.918 21.085-47.004 47.003-47.004s47.005 21.086 47.005 47.004zm-233.015-139.029c25.918 0 47.004 21.086 47.004 47.004 0 5.914-1.135 11.768-3.291 17.234-17.783 4.35-33.161 14.883-43.713 29.194-10.552-14.311-25.93-24.844-43.713-29.194-2.156-5.466-3.291-11.32-3.291-17.234 0-25.918 21.086-47.004 47.004-47.004zm100.147 166.464h-76.286c-5.743-7.959-8.861-17.5-8.861-27.435 0-25.918 21.086-47.004 47.004-47.004s47.004 21.086 47.004 47.004c0 9.935-3.118 19.475-8.861 27.435zm-162.151-74.439c25.918 0 47.004 21.086 47.004 47.004 0 9.935-3.117 19.475-8.861 27.435h-76.286c-5.744-7.959-8.861-17.5-8.861-27.435 0-25.918 21.086-47.004 47.004-47.004zm172.726 104.439-110.722 102.139-110.722-102.139zm60.289-149.46c0 5.915-1.135 11.768-3.291 17.234-17.783 4.35-33.161 14.883-43.713 29.194-10.552-14.311-25.93-24.844-43.713-29.194-2.156-5.467-3.291-11.32-3.291-17.234 0-25.918 21.086-47.004 47.004-47.004s47.004 21.086 47.004 47.004zm-109.007-139.029c25.918 0 47.004 21.086 47.004 47.004 0 5.914-1.135 11.768-3.291 17.235-17.783 4.35-33.161 14.883-43.713 29.194-10.552-14.311-25.93-24.844-43.713-29.194-2.156-5.467-3.291-11.321-3.291-17.235 0-25.918 21.086-47.004 47.004-47.004zm-124.008 0c25.918 0 47.004 21.086 47.004 47.004 0 5.914-1.135 11.768-3.291 17.235-17.783 4.35-33.161 14.883-43.713 29.194-10.552-14.311-25.93-24.844-43.713-29.194-2.156-5.467-3.291-11.32-3.291-17.235 0-25.918 21.086-47.004 47.004-47.004zm-62.004 92.025c25.918 0 47.004 21.086 47.004 47.004 0 5.914-1.135 11.768-3.291 17.234-17.783 4.35-33.161 14.883-43.713 29.194-10.552-14.311-25.93-24.844-43.713-29.194-2.156-5.466-3.291-11.319-3.291-17.234.001-25.918 21.086-47.004 47.004-47.004zm-109.007 139.029c0-25.918 21.086-47.004 47.004-47.004s47.003 21.086 47.003 47.004c0 9.935-3.117 19.475-8.861 27.435h-76.285c-5.744-7.96-8.861-17.5-8.861-27.435zm423.835 260.342h-381.64l-65.18-202.907h101.033l154.967 142.954 154.967-142.955h101.033z"/></g></svg>